PathFileType	4	(X/Y/Z)	2.trc
DataRate	CameraRate	NumFrames	NumMarkers	Units	OrigDataRate	OrigDataStartFrame	OrigNumFrames
147	147	6	50	mm	147	1	1496
Frame#	Time	L_IAS			R_IAS			L_TH1			L_TH2			L_TH3			L_TH4			L_FLE			L_FME			L_SK1			L_SK2			L_SK3			L_SK4			L_FAL			L_TAM			L_FCC			L_FM1			L_FM2			L_FM5			R_TH1			R_TH2			R_TH3			R_TH4			R_FLE			R_FME			R_SK2			R_SK1			R_SK3			R_SK4			R_FAL			R_TAM			R_FCC			R_FM1			R_FM2			R_FM5			R_IPS			L_IPS			CV7			L_SIA			R_SIA			TV10			L_SAE			R_SAE			L_ARM			R_ARM			L_HLE			R_HLE			L_RSP			L_USP			R_RSP			R_USP		
		X1	Y1	Z1	X2	Y2	Z2	X3	Y3	Z3	X4	Y4	Z4	X5	Y5	Z5	X6	Y6	Z6	X7	Y7	Z7	X8	Y8	Z8	X9	Y9	Z9	X10	Y10	Z10	X11	Y11	Z11	X12	Y12	Z12	X13	Y13	Z13	X14	Y14	Z14	X15	Y15	Z15	X16	Y16	Z16	X17	Y17	Z17	X18	Y18	Z18	X19	Y19	Z19	X20	Y20	Z20	X21	Y21	Z21	X22	Y22	Z22	X23	Y23	Z23	X24	Y24	Z24	X25	Y25	Z25	X26	Y26	Z26	X27	Y27	Z27	X28	Y28	Z28	X29	Y29	Z29	X30	Y30	Z30	X31	Y31	Z31	X32	Y32	Z32	X33	Y33	Z33	X34	Y34	Z34	X35	Y35	Z35	X36	Y36	Z36	X37	Y37	Z37	X38	Y38	Z38	X39	Y39	Z39	X40	Y40	Z40	X41	Y41	Z41	X42	Y42	Z42	X43	Y43	Z43	X44	Y44	Z44	X45	Y45	Z45	X46	Y46	Z46	X47	Y47	Z47	X48	Y48	Z48	X49	Y49	Z49	X50	Y50	Z50

1	0.000000	155.895440	853.354749	-508.036760	167.418978	875.558880	-230.109217	143.487575	585.042204	-558.471004	98.309497	586.543050	-558.479736	99.403963	514.063981	-558.025327	142.724070	511.520958	-556.447297	84.098764	418.047088	-540.685704	115.833534	397.851427	-430.937098	89.549360	323.463056	-552.806836	47.454661	325.974368	-559.066659	44.270320	252.214338	-569.691043	88.099253	250.843903	-562.675994	54.803629	17.074535	-528.276117	77.035746	37.009695	-444.269332	-22.916542	-23.778761	-478.580843	187.235669	-11.134116	-461.825278	195.951165	0.149695	-505.369465	156.147746	-28.012316	-569.950039	112.010488	522.281505	-134.929523	152.855531	509.828630	-145.594802	130.078286	440.303629	-160.211092	91.208793	441.747772	-148.936156	69.128640	423.938505	-156.517716	101.078838	393.784094	-275.934203	80.906969	329.261990	-136.615527	35.502579	337.452429	-139.498260	71.058029	258.204890	-124.455303	26.213546	263.385599	-126.219033	39.990873	21.038144	-142.452066	66.718968	33.752391	-227.863976	-29.067545	-20.508828	-196.788623	182.235986	-10.618677	-194.346047	181.172283	4.323143	-142.028975	146.150620	-13.300411	-94.239214	-4.504199	906.868057	-310.230478	-4.344638	909.779987	-405.225230	1.458424	1350.290450	-369.656577	-14.073836	1174.964333	-465.100931	-20.661986	1176.605876	-280.980469	-2.853098	1110.122723	-364.895622	93.448944	1348.518312	-538.013189	82.600490	1352.608403	-183.110054	61.125334	1186.678664	-624.697737	78.690156	1183.573504	-102.692496	29.171681	1029.691557	-643.351126	69.442567	1022.449043	-85.451771	176.051081	917.898214	-480.590197	188.416563	892.822204	-538.908128	212.176851	945.354747	-269.241557	231.000434	905.100747	-217.146727
2	0.006803	155.800866	853.413241	-508.015962	167.388802	875.529712	-230.089432	143.428907	585.045966	-558.465493	98.249053	586.535223	-558.472180	99.348757	514.073467	-558.031693	142.673018	511.532420	-556.442964	84.063436	418.048268	-540.682381	115.805442	397.856851	-430.941306	89.514510	323.465623	-552.799398	47.420358	325.955509	-559.034964	44.240610	252.215286	-569.691138	88.076166	250.858277	-562.670267	54.800611	17.073757	-528.277797	77.032012	37.010964	-444.275736	-22.916454	-23.778892	-478.581106	187.234298	-11.131830	-461.825562	195.950674	0.149652	-505.369800	156.148826	-28.011120	-569.948955	112.005336	522.276859	-134.926488	152.855727	509.829405	-145.597478	130.083630	440.305775	-160.210102	91.212759	441.746166	-148.929392	69.130765	423.931751	-156.506630	101.058040	393.788669	-275.929791	80.918492	329.253948	-136.605221	35.515691	337.438802	-139.478065	71.075937	258.190721	-124.456105	26.232662	263.374692	-126.208537	39.992382	21.039112	-142.452309	66.718507	33.750751	-227.867238	-29.067842	-20.509559	-196.787756	182.219346	-10.632905	-194.349029	181.172693	4.327450	-142.033155	146.150175	-13.295566	-94.241703	-4.573765	906.877850	-310.190386	-4.428852	909.785313	-405.188867	1.448649	1350.297652	-369.567890	-14.145656	1174.967443	-465.010611	-20.672101	1176.628992	-280.875787	-2.794632	1110.111920	-364.835616	93.324902	1348.520303	-537.942435	82.603507	1352.638879	-183.083799	60.872788	1186.857333	-624.746786	78.515862	1183.851574	-102.419501	28.726180	1029.951307	-643.697333	69.047985	1022.775409	-84.795283	175.698776	918.293408	-480.821057	187.960812	893.112882	-539.077888	211.858500	946.192003	-268.771993	230.401235	905.612329	-216.954521
3	0.013605	155.706841	853.471714	-507.996015	167.359723	875.500748	-230.069398	143.370803	585.049635	-558.460002	98.189454	586.527689	-558.464981	99.294237	514.082977	-558.038206	142.622678	511.543809	-556.438741	84.028482	418.049497	-540.679196	115.777583	397.862174	-430.945560	89.479933	323.468136	-552.792086	47.386430	325.936935	-559.003757	44.211151	252.216248	-569.691337	88.053220	250.872432	-562.664802	54.797664	17.072946	-528.279536	77.028267	37.012244	-444.282048	-22.916346	-23.778998	-478.581392	187.232916	-11.129519	-461.825892	195.950151	0.149666	-505.370150	156.149909	-28.009926	-569.947897	112.000251	522.272250	-134.923615	152.856016	509.830197	-145.600166	130.088893	440.307871	-160.209275	91.216528	441.744886	-148.922676	69.132765	423.925109	-156.495804	101.037521	393.793099	-275.925494	80.929897	329.246022	-136.595185	35.528710	337.425292	-139.458137	71.093733	258.176714	-124.456952	26.251642	263.363860	-126.198206	39.993896	21.040054	-142.452616	66.718091	33.749144	-227.870470	-29.068124	-20.510261	-196.786891	182.202935	-10.646919	-194.351981	181.173103	4.331711	-142.037326	146.149724	-13.290749	-94.244201	-4.642486	906.887493	-310.150931	-4.512010	909.790583	-405.153091	1.438825	1350.304640	-369.479984	-14.216618	1174.970370	-464.921226	-20.682068	1176.651645	-280.772049	-2.739609	1110.101857	-364.774907	93.202172	1348.522163	-537.872308	82.606007	1352.669271	-183.058013	60.622559	1187.033941	-624.794942	78.342719	1184.127601	-102.148961	28.285096	1030.208130	-644.039626	68.656728	1023.099384	-84.144635	175.351148	918.683702	-481.050655	187.510646	893.400336	-539.246434	211.544544	947.021307	-268.305677	229.807884	906.118599	-216.763169
4	0.020408	155.612847	853.530901	-507.977110	167.331866	875.472171	-230.049130	143.313316	585.053236	-558.454434	98.130899	586.520573	-558.458226	99.240429	514.092688	-558.045343	142.573382	511.555105	-556.434627	83.994112	418.050778	-540.676233	115.750020	397.867334	-430.949841	89.445903	323.470508	-552.784980	47.352893	325.918966	-558.973669	44.182237	252.217217	-569.691662	88.030529	250.886139	-562.659751	54.794821	17.072111	-528.281384	77.024530	37.013549	-444.288235	-22.916221	-23.779064	-478.581715	187.231521	-11.127154	-461.826312	195.949563	0.149829	-505.370532	156.150996	-28.008736	-569.946875	111.995104	522.267666	-134.920886	152.856227	509.831058	-145.602804	130.093878	440.309894	-160.208681	91.220012	441.743934	-148.916065	69.134327	423.918705	-156.485312	101.017197	393.797274	-275.921336	80.941148	329.238237	-136.585481	35.541571	337.411895	-139.438487	71.111411	258.162855	-124.457842	26.270473	263.353010	-126.188029	39.995406	21.040956	-142.453010	66.717754	33.747597	-227.873655	-29.068392	-20.510884	-196.786002	182.186973	-10.660515	-194.354877	181.173508	4.335909	-142.041503	146.149253	-13.285933	-94.246730	-4.710509	906.896863	-310.112309	-4.594133	909.795746	-405.118077	1.428878	1350.311514	-369.392325	-14.286587	1174.973433	-464.832313	-20.691830	1176.673862	-280.668608	-2.692793	1110.093779	-364.711827	93.081285	1348.523850	-537.802272	82.608408	1352.699544	-183.032104	60.375309	1187.208394	-624.841779	78.172641	1184.400939	-101.880937	27.849522	1030.462081	-644.377766	68.271362	1023.420111	-83.501464	175.008597	919.069598	-481.278817	187.067678	893.685847	-539.412963	211.235019	947.843005	-267.847618	229.222940	906.621580	-216.576667
5	0.027211	155.518335	853.591530	-507.959358	167.305257	875.444166	-230.028695	143.256464	585.056795	-558.448693	98.073521	586.513964	-558.451965	99.187315	514.102783	-558.053567	142.525408	511.566297	-556.430608	83.960503	418.052111	-540.673563	115.722797	397.872276	-430.954127	89.412670	323.472661	-552.778153	47.319713	325.901914	-558.945325	44.154144	252.218183	-569.692124	88.008199	250.899183	-562.655244	54.792111	17.071262	-528.283386	77.020824	37.014895	-444.294274	-22.916084	-23.779078	-478.582087	187.230116	-11.124710	-461.826859	195.948885	0.150225	-505.370962	156.152084	-28.007547	-569.945894	111.989750	522.263089	-134.918266	152.856168	509.832037	-145.605327	130.098373	440.311825	-160.208374	91.223124	441.743288	-148.909613	69.135140	423.912664	-156.475206	100.996955	393.801095	-275.917333	80.952203	329.230609	-136.576149	35.554202	337.398603	-139.419110	71.128957	258.149119	-124.458761	26.289130	263.342051	-126.177980	39.996899	21.041807	-142.453509	66.717526	33.746133	-227.876772	-29.068652	-20.511378	-196.785067	182.171663	-10.673495	-194.357693	181.173901	4.340027	-142.045699	146.148748	-13.281090	-94.249311	-4.778041	906.905856	-310.074668	-4.675318	909.800760	-405.083951	1.418719	1350.318395	-369.304333	-14.355484	1174.976965	-464.743330	-20.701329	1176.695710	-280.564743	-2.658534	1110.088837	-364.644805	92.962679	1348.525322	-537.731740	82.611179	1352.729669	-183.005442	60.131546	1187.380743	-624.886943	78.007486	1184.671066	-101.615333	27.420254	1030.713419	-644.711812	67.894224	1023.736865	-82.867037	174.671167	919.451947	-481.505411	186.633110	893.970922	-539.576748	210.929463	948.657866	-267.402797	228.648541	907.123668	-216.399014
6	0.034014	155.422768	853.654272	-507.942774	167.279814	875.416921	-230.008217	143.200234	585.060338	-558.442687	98.017381	586.507915	-558.446207	99.134835	514.113440	-558.063304	142.478973	511.577371	-556.426661	83.927805	418.053492	-540.671239	115.695950	397.876957	-430.958386	89.380457	323.474527	-552.771672	47.286814	325.886082	-558.919319	44.127122	252.219129	-569.692716	87.986325	250.911376	-562.651375	54.789558	17.070420	-528.285582	77.017179	37.016295	-444.300159	-22.915941	-23.779032	-478.582523	187.228705	-11.122169	-461.827567	195.948097	0.150929	-505.371451	156.153173	-28.006359	-569.944959	111.984039	522.258503	-134.915703	152.855629	509.833180	-145.607666	130.102165	440.313649	-160.208387	91.225792	441.742890	-148.903364	69.134906	423.907103	-156.465513	100.976656	393.804467	-275.913492	80.963010	329.223154	-136.567203	35.566518	337.385411	-139.399990	71.146343	258.135482	-124.459689	26.307576	263.330893	-126.168021	39.998362	21.042594	-142.454121	66.717433	33.744770	-227.879799	-29.068910	-20.511698	-196.784068	182.157193	-10.685681	-194.360404	181.174271	4.344048	-142.049922	146.148196	-13.276194	-94.251962	-4.845331	906.914390	-310.038096	-4.755725	909.805594	-405.050787	1.408252	1350.325424	-369.215424	-14.423278	1174.981299	-464.653700	-20.710508	1176.717292	-280.459707	-2.640528	1110.088020	-364.572472	92.846700	1348.526542	-537.660115	82.614836	1352.759613	-182.977387	59.891654	1187.551163	-624.930177	77.849019	1184.937548	-101.351956	26.997837	1030.962562	-645.042068	67.527407	1024.049004	-82.242330	174.338583	919.831866	-481.730294	186.207743	894.257197	-539.737130	210.626946	949.466904	-266.976092	228.086422	907.627453	-216.234113
